<svg xmlns="http://www.w3.org/2000/svg" width="53.164" height="51.239" viewBox="0 0 53.164 51.239">
  <g id="handout" transform="translate(-2 -3)">
    <path id="Path_9" data-name="Path 9" d="M23.394,3a8.394,8.394,0,1,0,8.394,8.394A8.4,8.4,0,0,0,23.394,3Zm2.8,9.327H20.6a.933.933,0,1,1,0-1.865h5.6a.933.933,0,0,1,0,1.865Z" transform="translate(-1.741)" fill="#42fbb7"/>
    <path id="Path_10" data-name="Path 10" d="M47.394,15a8.394,8.394,0,1,0,8.394,8.394A8.4,8.4,0,0,0,47.394,15Zm2.8,9.327H44.6a.933.933,0,0,1,0-1.865h5.6a.933.933,0,0,1,0,1.865Z" transform="translate(-5.288 -1.62)" fill="#42fbb7"/>
    <path id="Path_11" data-name="Path 11" d="M51.553,44.049l-21.17,1.938a9.275,9.275,0,0,1-5.633-1.3l-5.835-3.51H32.53a3.391,3.391,0,0,0,3.3-3.475,3.432,3.432,0,0,0-2.693-3.416L20.915,31.872A45.958,45.958,0,0,0,12.007,31H2V49.415l19.875,8.722a11.047,11.047,0,0,0,6.873.261L55.164,47.534h0A3.4,3.4,0,0,0,51.553,44.049Z" transform="translate(0 -4.581)" fill="#42fbb7"/>
  </g>
</svg>
