<svg id="ic_phone_in_talk_48px" xmlns="http://www.w3.org/2000/svg" width="45.06" height="45.06" viewBox="0 0 45.06 45.06">
  <path id="Path_5" data-name="Path 5" d="M48.557,37.292a28.556,28.556,0,0,1-8.937-1.427,2.512,2.512,0,0,0-2.541.613L31.572,42a37.764,37.764,0,0,1-16.5-16.484l5.507-5.52a2.512,2.512,0,0,0,.613-2.541A28.634,28.634,0,0,1,19.768,8.5a2.5,2.5,0,0,0-2.5-2.5H8.5A2.5,2.5,0,0,0,6,8.5,42.553,42.553,0,0,0,48.557,51.06a2.5,2.5,0,0,0,2.5-2.5V39.8A2.5,2.5,0,0,0,48.557,37.292Zm-2.5-8.762H51.06A22.532,22.532,0,0,0,28.53,6v5.007A17.527,17.527,0,0,1,46.053,28.53Zm-10.013,0h5.007A12.521,12.521,0,0,0,28.53,16.013V21.02A7.516,7.516,0,0,1,36.04,28.53Z" transform="translate(-6 -6)" fill="#42fbb7"/>
</svg>
