<svg xmlns="http://www.w3.org/2000/svg" width="50" height="62" viewBox="0 0 50 62">
  <g id="single-folded-content" transform="translate(-7 -1)">
    <path id="Path_13" data-name="Path 13" d="M42,2.586V16H55.414Z" fill="#42fbb7"/>
    <path id="Path_14" data-name="Path 14" d="M40,17V1H9A2,2,0,0,0,7,3V61a2,2,0,0,0,2,2H55a2,2,0,0,0,2-2V18H41A1,1,0,0,1,40,17ZM20,17h8a1,1,0,0,1,0,2H20a1,1,0,0,1,0-2ZM44,49H20a1,1,0,0,1,0-2H44a1,1,0,0,1,0,2Zm0-10H20a1,1,0,0,1,0-2H44a1,1,0,0,1,0,2Zm1-11a1,1,0,0,1-1,1H20a1,1,0,0,1,0-2H44A1,1,0,0,1,45,28Z" fill="#42fbb7"/>
  </g>
</svg>
